<mxfile>
    <diagram id="5mTXBJFtQWy5TRjGWtDf" name="Page-1">
        <mxGraphModel dx="990" dy="2575" grid="1" gridSize="10" guides="1" tooltips="1" connect="1" arrows="1" fold="1" page="1" pageScale="1" pageWidth="1650" pageHeight="2000" math="0" shadow="0">
            <root>
                <mxCell id="0"/>
                <mxCell id="1" parent="0"/>
                <mxCell id="2" value="&lt;h1&gt;Functional Requirements&lt;/h1&gt;&lt;p&gt;1. Onboard Restaurant/Customers/Delivery Person&lt;/p&gt;&lt;p&gt;2. Customer can search restaurant/food based on nearby restaurants and place the order.&lt;/p&gt;&lt;p&gt;3. Payment System for placing the order.&lt;/p&gt;&lt;p&gt;4. Order System for tracking/replacing/refunding orders.&lt;/p&gt;&lt;p&gt;5. Delivery Person and Restaurant accepts an order/delivery requests made by customers.&lt;/p&gt;&lt;p&gt;6. Inventory Management (Food items &amp;amp; Menu)&lt;/p&gt;&lt;p&gt;7. Order Management (Order's life cycle, customer-restaurant process)&lt;/p&gt;&lt;p&gt;8. Delivery Management (Delivery person - customer process)&lt;/p&gt;&lt;p&gt;9. Notification service&lt;/p&gt;" style="text;html=1;strokeColor=none;fillColor=none;spacing=5;spacingTop=-20;whiteSpace=wrap;overflow=hidden;rounded=0;" vertex="1" parent="1">
                    <mxGeometry x="70" y="-1840" width="540" height="290" as="geometry"/>
                </mxCell>
                <mxCell id="3" value="&lt;h1&gt;Non Functional&lt;/h1&gt;&lt;p&gt;1. Highly Scalable(able to handle load in peak times lunch,dinner etc)&lt;/p&gt;&lt;p&gt;2. Low Latency(Placing an order experience should be smooth)&lt;/p&gt;&lt;p&gt;3. Highly Available&lt;/p&gt;&lt;p&gt;4. Highly Consistent (In some perspective but not others)&lt;/p&gt;&lt;p&gt;5. Highly Durable (Should not loose the data)&lt;/p&gt;" style="text;html=1;strokeColor=none;fillColor=none;spacing=5;spacingTop=-20;whiteSpace=wrap;overflow=hidden;rounded=0;" vertex="1" parent="1">
                    <mxGeometry x="670" y="-1840" width="380" height="200" as="geometry"/>
                </mxCell>
                <mxCell id="26" style="edgeStyle=orthogonalEdgeStyle;rounded=0;orthogonalLoop=1;jettySize=auto;html=1;" edge="1" parent="1" source="5" target="6">
                    <mxGeometry relative="1" as="geometry"/>
                </mxCell>
                <mxCell id="33" style="edgeStyle=orthogonalEdgeStyle;rounded=0;orthogonalLoop=1;jettySize=auto;html=1;entryX=0.5;entryY=1;entryDx=0;entryDy=0;entryPerimeter=0;" edge="1" parent="1" source="5" target="31">
                    <mxGeometry relative="1" as="geometry"/>
                </mxCell>
                <mxCell id="5" value="User Service" style="rounded=1;whiteSpace=wrap;html=1;" vertex="1" parent="1">
                    <mxGeometry x="310" y="-510" width="120" height="60" as="geometry"/>
                </mxCell>
                <mxCell id="44" style="edgeStyle=orthogonalEdgeStyle;rounded=0;orthogonalLoop=1;jettySize=auto;html=1;entryX=0.5;entryY=0;entryDx=0;entryDy=0;entryPerimeter=0;" edge="1" parent="1" source="6" target="40">
                    <mxGeometry relative="1" as="geometry"/>
                </mxCell>
                <mxCell id="6" value="Search Service" style="rounded=1;whiteSpace=wrap;html=1;" vertex="1" parent="1">
                    <mxGeometry x="440" y="-590" width="120" height="60" as="geometry"/>
                </mxCell>
                <mxCell id="7" value="Inventory Service" style="rounded=1;whiteSpace=wrap;html=1;" vertex="1" parent="1">
                    <mxGeometry x="310" y="-390" width="120" height="60" as="geometry"/>
                </mxCell>
                <mxCell id="30" style="edgeStyle=orthogonalEdgeStyle;rounded=0;orthogonalLoop=1;jettySize=auto;html=1;" edge="1" parent="1" source="9" target="13">
                    <mxGeometry relative="1" as="geometry"/>
                </mxCell>
                <mxCell id="9" value="Order Service" style="rounded=1;whiteSpace=wrap;html=1;" vertex="1" parent="1">
                    <mxGeometry x="700" y="-510" width="120" height="60" as="geometry"/>
                </mxCell>
                <mxCell id="10" value="Verification Service" style="rounded=1;whiteSpace=wrap;html=1;" vertex="1" parent="1">
                    <mxGeometry x="310" y="-690" width="120" height="60" as="geometry"/>
                </mxCell>
                <mxCell id="36" style="edgeStyle=orthogonalEdgeStyle;rounded=0;orthogonalLoop=1;jettySize=auto;html=1;" edge="1" parent="1" source="11" target="14">
                    <mxGeometry relative="1" as="geometry"/>
                </mxCell>
                <mxCell id="37" style="edgeStyle=orthogonalEdgeStyle;rounded=0;orthogonalLoop=1;jettySize=auto;html=1;entryX=1;entryY=0.5;entryDx=0;entryDy=0;" edge="1" parent="1" source="11" target="12">
                    <mxGeometry relative="1" as="geometry"/>
                </mxCell>
                <mxCell id="11" value="Delivery Service" style="rounded=1;whiteSpace=wrap;html=1;" vertex="1" parent="1">
                    <mxGeometry x="630" y="-330" width="120" height="60" as="geometry"/>
                </mxCell>
                <mxCell id="38" style="edgeStyle=orthogonalEdgeStyle;rounded=0;orthogonalLoop=1;jettySize=auto;html=1;entryX=0.715;entryY=-0.048;entryDx=0;entryDy=0;entryPerimeter=0;" edge="1" parent="1" source="12" target="21">
                    <mxGeometry relative="1" as="geometry"/>
                </mxCell>
                <mxCell id="12" value="Notification Service" style="rounded=1;whiteSpace=wrap;html=1;" vertex="1" parent="1">
                    <mxGeometry x="370" y="-290" width="120" height="60" as="geometry"/>
                </mxCell>
                <mxCell id="35" style="edgeStyle=orthogonalEdgeStyle;rounded=0;orthogonalLoop=1;jettySize=auto;html=1;entryX=0;entryY=0.5;entryDx=0;entryDy=0;entryPerimeter=0;" edge="1" parent="1" source="13" target="31">
                    <mxGeometry relative="1" as="geometry">
                        <Array as="points">
                            <mxPoint x="925" y="-530"/>
                            <mxPoint x="605" y="-530"/>
                        </Array>
                    </mxGeometry>
                </mxCell>
                <mxCell id="45" style="edgeStyle=orthogonalEdgeStyle;rounded=0;orthogonalLoop=1;jettySize=auto;html=1;entryX=0.5;entryY=0;entryDx=0;entryDy=0;entryPerimeter=0;" edge="1" parent="1" source="13" target="39">
                    <mxGeometry relative="1" as="geometry"/>
                </mxCell>
                <mxCell id="13" value="Payment Service" style="rounded=1;whiteSpace=wrap;html=1;" vertex="1" parent="1">
                    <mxGeometry x="865" y="-510" width="120" height="60" as="geometry"/>
                </mxCell>
                <mxCell id="14" value="Map Service" style="rounded=1;whiteSpace=wrap;html=1;" vertex="1" parent="1">
                    <mxGeometry x="630" y="-200" width="120" height="60" as="geometry"/>
                </mxCell>
                <mxCell id="15" value="&lt;h1&gt;Public APIs&lt;/h1&gt;&lt;p&gt;1. onboardCustomer(user_id, e_mail, address)&lt;/p&gt;&lt;p&gt;2. onboardDeliveryPerson(user_id,verification_id, phone_number)&lt;/p&gt;&lt;p&gt;3. onboardRestaurant(restaurant_id, address)&lt;/p&gt;&lt;p&gt;4. search(item_name, restaturant_name, description)&lt;/p&gt;&lt;p&gt;5. placeOrder(order_id, user_id, restaurant_id, list_of_items)&lt;/p&gt;&lt;p&gt;6. makePayment(payment_id, order_id, price)&lt;/p&gt;&lt;p&gt;7. acceptOrder(order_id, restaurant_id)&lt;/p&gt;&lt;p&gt;8. acceptDelivery(order_id, delivery_person_id)&lt;/p&gt;" style="text;html=1;strokeColor=none;fillColor=none;spacing=5;spacingTop=-20;whiteSpace=wrap;overflow=hidden;rounded=0;" vertex="1" parent="1">
                    <mxGeometry x="80" y="-1500" width="410" height="270" as="geometry"/>
                </mxCell>
                <mxCell id="16" value="&lt;h1&gt;DB Schema&lt;/h1&gt;&lt;p&gt;User Table&lt;/p&gt;&lt;p&gt;user_id&lt;/p&gt;&lt;p&gt;user_name&lt;/p&gt;&lt;p&gt;user_address&lt;/p&gt;&lt;p&gt;&lt;br&gt;&lt;/p&gt;&lt;p&gt;Delivery Person Table&lt;/p&gt;&lt;p&gt;deliver_person_id&lt;/p&gt;&lt;p&gt;name&lt;/p&gt;&lt;p&gt;phone_number&lt;/p&gt;&lt;p&gt;address&lt;/p&gt;&lt;p&gt;&lt;br&gt;&lt;/p&gt;&lt;p&gt;Restaurant Table&lt;/p&gt;&lt;p&gt;restaurant_id&lt;/p&gt;&lt;p&gt;phone_number&lt;/p&gt;&lt;p&gt;address&lt;/p&gt;&lt;p&gt;&lt;br&gt;&lt;/p&gt;&lt;p&gt;Items Table&lt;/p&gt;&lt;p&gt;restaurant_id&lt;/p&gt;&lt;p&gt;item_id&lt;/p&gt;&lt;p&gt;category&lt;/p&gt;&lt;p&gt;&lt;br&gt;&lt;/p&gt;&lt;p&gt;Order Table&lt;/p&gt;&lt;p&gt;order_id&lt;/p&gt;&lt;p&gt;restaurant_id&lt;/p&gt;&lt;p&gt;item_id&lt;/p&gt;&lt;p&gt;user_id&lt;/p&gt;&lt;p&gt;delivery_person_id&lt;/p&gt;" style="text;html=1;strokeColor=none;fillColor=none;spacing=5;spacingTop=-20;whiteSpace=wrap;overflow=hidden;rounded=0;" vertex="1" parent="1">
                    <mxGeometry x="705" y="-1620" width="150" height="820" as="geometry"/>
                </mxCell>
                <mxCell id="22" style="edgeStyle=orthogonalEdgeStyle;rounded=0;orthogonalLoop=1;jettySize=auto;html=1;" edge="1" parent="1" source="17">
                    <mxGeometry relative="1" as="geometry">
                        <mxPoint x="170" y="-490" as="targetPoint"/>
                    </mxGeometry>
                </mxCell>
                <mxCell id="17" value="Customer" style="shape=umlActor;verticalLabelPosition=bottom;verticalAlign=top;html=1;outlineConnect=0;" vertex="1" parent="1">
                    <mxGeometry x="60" y="-520" width="30" height="60" as="geometry"/>
                </mxCell>
                <mxCell id="18" value="Restaurant" style="shape=umlActor;verticalLabelPosition=bottom;verticalAlign=top;html=1;outlineConnect=0;" vertex="1" parent="1">
                    <mxGeometry x="60" y="-380" width="30" height="60" as="geometry"/>
                </mxCell>
                <mxCell id="19" value="Delivery Person" style="shape=umlActor;verticalLabelPosition=bottom;verticalAlign=top;html=1;outlineConnect=0;" vertex="1" parent="1">
                    <mxGeometry x="60" y="-240" width="30" height="60" as="geometry"/>
                </mxCell>
                <mxCell id="23" style="edgeStyle=orthogonalEdgeStyle;rounded=0;orthogonalLoop=1;jettySize=auto;html=1;" edge="1" parent="1" source="21">
                    <mxGeometry relative="1" as="geometry">
                        <mxPoint x="100" y="-360" as="targetPoint"/>
                    </mxGeometry>
                </mxCell>
                <mxCell id="24" style="edgeStyle=orthogonalEdgeStyle;rounded=0;orthogonalLoop=1;jettySize=auto;html=1;exitX=0.75;exitY=1;exitDx=0;exitDy=0;" edge="1" parent="1" source="21">
                    <mxGeometry relative="1" as="geometry">
                        <mxPoint x="100" y="-200" as="targetPoint"/>
                    </mxGeometry>
                </mxCell>
                <mxCell id="25" style="edgeStyle=orthogonalEdgeStyle;rounded=0;orthogonalLoop=1;jettySize=auto;html=1;exitX=0.25;exitY=0;exitDx=0;exitDy=0;" edge="1" parent="1" source="21" target="5">
                    <mxGeometry relative="1" as="geometry"/>
                </mxCell>
                <mxCell id="27" style="edgeStyle=orthogonalEdgeStyle;rounded=0;orthogonalLoop=1;jettySize=auto;html=1;" edge="1" parent="1" source="21" target="10">
                    <mxGeometry relative="1" as="geometry">
                        <Array as="points">
                            <mxPoint x="205" y="-660"/>
                        </Array>
                    </mxGeometry>
                </mxCell>
                <mxCell id="28" style="edgeStyle=orthogonalEdgeStyle;rounded=0;orthogonalLoop=1;jettySize=auto;html=1;" edge="1" parent="1" source="21" target="7">
                    <mxGeometry relative="1" as="geometry"/>
                </mxCell>
                <mxCell id="21" value="LB" style="rounded=0;whiteSpace=wrap;html=1;direction=south;" vertex="1" parent="1">
                    <mxGeometry x="180" y="-600" width="50" height="480" as="geometry"/>
                </mxCell>
                <mxCell id="32" style="edgeStyle=orthogonalEdgeStyle;rounded=0;orthogonalLoop=1;jettySize=auto;html=1;entryX=0;entryY=0.5;entryDx=0;entryDy=0;" edge="1" parent="1" source="31" target="9">
                    <mxGeometry relative="1" as="geometry"/>
                </mxCell>
                <mxCell id="34" style="edgeStyle=orthogonalEdgeStyle;rounded=0;orthogonalLoop=1;jettySize=auto;html=1;" edge="1" parent="1" source="31" target="11">
                    <mxGeometry relative="1" as="geometry"/>
                </mxCell>
                <mxCell id="31" value="DMQ" style="shape=cylinder3;whiteSpace=wrap;html=1;boundedLbl=1;backgroundOutline=1;size=15;direction=south;" vertex="1" parent="1">
                    <mxGeometry x="550" y="-510" width="110" height="60" as="geometry"/>
                </mxCell>
                <mxCell id="39" value="DB" style="shape=cylinder3;whiteSpace=wrap;html=1;boundedLbl=1;backgroundOutline=1;size=15;" vertex="1" parent="1">
                    <mxGeometry x="1190" y="-450" width="120" height="130" as="geometry"/>
                </mxCell>
                <mxCell id="41" style="edgeStyle=orthogonalEdgeStyle;rounded=0;orthogonalLoop=1;jettySize=auto;html=1;entryX=0;entryY=0.5;entryDx=0;entryDy=0;entryPerimeter=0;" edge="1" parent="1" source="40" target="39">
                    <mxGeometry relative="1" as="geometry"/>
                </mxCell>
                <mxCell id="40" value="Cache" style="shape=cylinder3;whiteSpace=wrap;html=1;boundedLbl=1;backgroundOutline=1;size=15;" vertex="1" parent="1">
                    <mxGeometry x="1010" y="-450" width="120" height="130" as="geometry"/>
                </mxCell>
            </root>
        </mxGraphModel>
    </diagram>
</mxfile>